<svg width="26.000000" height="26.000000" viewBox="0 0 26 26" fill="none" xmlns="http://www.w3.org/2000/svg" xmlns:xlink="http://www.w3.org/1999/xlink">
	<desc>
			Created with Pixso.
	</desc>
	<defs>
		<clipPath id="clip3_2562">
			<rect id="icon 24x24" rx="0.500000" width="25.000000" height="25.000000" transform="translate(0.500000 0.500000)" fill="white" fill-opacity="0"/>
		</clipPath>
	</defs>
	<g clip-path="url(#clip3_2562)">
		<path id="Vector" d="M18.06 7.56C18.06 11.08 15.89 14.1 13 14.1C10.1 14.1 7.93 11.08 7.93 7.56C7.93 4.05 9.8 2 13 2C16.19 2 18.06 4.05 18.06 7.56ZM4.1 21.95C4.53 22.46 6.4 24 13 24C19.59 24 21.46 22.46 21.89 21.95C21.97 21.85 22.01 21.73 21.99 21.6C21.89 20.63 21 16.29 13 16.29C4.99 16.29 4.1 20.63 4 21.6C3.98 21.73 4.02 21.85 4.1 21.95Z" fill="#8585AD" fill-opacity="1.000000" fill-rule="evenodd"/>
	</g>
	<rect id="icon 24x24" rx="0.500000" width="25.000000" height="25.000000" transform="translate(0.500000 0.500000)" stroke="#4C4CFF" stroke-opacity="1.000000" stroke-width="1.000000" stroke-dasharray="2 2"/>
</svg>
