<svg width="26.000000" height="26.000000" viewBox="0 0 26 26" fill="none" xmlns="http://www.w3.org/2000/svg" xmlns:xlink="http://www.w3.org/1999/xlink">
	<desc>
			Created with Pixso.
	</desc>
	<defs>
		<clipPath id="clip3_2556">
			<rect id="icon 24x24" rx="0.500000" width="25.000000" height="25.000000" transform="translate(0.500000 0.500000)" fill="white" fill-opacity="0"/>
		</clipPath>
	</defs>
	<g clip-path="url(#clip3_2556)">
		<path id="Subtract" d="M2 4C2 2.89 2.89 2 4 2L22 2C23.1 2 24 2.89 24 4L24 22C24 23.1 23.1 24 22 24L4 24C2.89 24 2 23.1 2 22L2 4ZM7.5 9C8.05 9 8.5 8.55 8.5 8C8.5 7.44 8.05 7 7.5 7C6.94 7 6.5 7.44 6.5 8C6.5 8.55 6.94 9 7.5 9ZM9.5 8C9.5 7.44 9.94 7 10.5 7L18.5 7C19.05 7 19.5 7.44 19.5 8C19.5 8.55 19.05 9 18.5 9L10.5 9C9.94 9 9.5 8.55 9.5 8ZM10.5 12C9.94 12 9.5 12.44 9.5 13C9.5 13.55 9.94 14 10.5 14L18.5 14C19.05 14 19.5 13.55 19.5 13C19.5 12.44 19.05 12 18.5 12L10.5 12ZM10.5 17C9.94 17 9.5 17.44 9.5 18C9.5 18.55 9.94 19 10.5 19L18.5 19C19.05 19 19.5 18.55 19.5 18C19.5 17.44 19.05 17 18.5 17L10.5 17ZM7.5 14C8.05 14 8.5 13.55 8.5 13C8.5 12.44 8.05 12 7.5 12C6.94 12 6.5 12.44 6.5 13C6.5 13.55 6.94 14 7.5 14ZM7.5 19C8.05 19 8.5 18.55 8.5 18C8.5 17.44 8.05 17 7.5 17C6.94 17 6.5 17.44 6.5 18C6.5 18.55 6.94 19 7.5 19Z" fill="#8585AD" fill-opacity="1.000000" fill-rule="evenodd"/>
	</g>
	<rect id="icon 24x24" rx="0.500000" width="25.000000" height="25.000000" transform="translate(0.500000 0.500000)" stroke="#4C4CFF" stroke-opacity="1.000000" stroke-width="1.000000" stroke-dasharray="2 2"/>
</svg>
